<svg version="1.2" baseProfile="tiny-ps" xmlns="http://www.w3.org/2000/svg" viewBox="0 0 152 152" width="152" height="152">
	<title>Footer</title>
	<style>
		tspan { white-space:pre }
		.shp0 { fill: #ffffff } 
	</style>
	<g id="Footer">
		<g id="Social Icons">
			<path id="Dribble" class="shp0" d="M149.28 60.94C148.3 56.16 146.85 51.48 144.95 46.98C143.08 42.58 140.79 38.33 138.1 34.37C135.46 30.44 132.4 26.76 129.05 23.41C125.69 20.04 122.01 16.98 118.08 14.34C114.11 11.65 109.87 9.34 105.46 7.48C100.99 5.59 96.28 4.14 91.51 3.17C86.62 2.16 81.59 1.65 76.57 1.65C71.54 1.65 66.51 2.16 61.61 3.17C56.86 4.14 52.15 5.59 47.68 7.48C43.27 9.34 39.03 11.65 35.07 14.34C31.14 16.98 27.44 20.04 24.07 23.41C20.73 26.76 17.68 30.44 15.02 34.37C12.35 38.33 10.04 42.58 8.19 46.98C6.29 51.48 4.82 56.16 3.85 60.94C2.86 65.82 2.34 70.86 2.34 75.87C2.34 80.91 2.86 85.94 3.85 90.81C4.82 95.59 6.29 100.29 8.19 104.77C10.04 109.17 12.35 113.41 15.02 117.4C17.68 121.3 20.73 125.01 24.07 128.36C27.44 131.73 31.14 134.76 35.07 137.41C39.03 140.09 43.27 142.41 47.68 144.27C52.15 146.16 56.86 147.61 61.61 148.58C66.51 149.6 71.54 150.1 76.57 150.1C81.59 150.1 86.62 149.6 91.51 148.58C96.28 147.61 100.99 146.16 105.46 144.27C109.87 142.41 114.11 140.09 118.08 137.41C122.01 134.76 125.69 131.73 129.05 128.36C132.4 125.01 135.46 121.3 138.1 117.4C140.79 113.41 143.08 109.17 144.95 104.77C146.85 100.29 148.3 95.59 149.28 90.81C150.29 85.94 150.78 80.91 150.78 75.87C150.78 70.86 150.29 65.82 149.28 60.94ZM139.94 75.23C139.01 75.05 117.56 70.43 95.79 73.16C95.34 72.08 94.88 70.98 94.42 69.9C93.09 66.8 91.68 63.73 90.21 60.7C115.23 50.48 125.39 35.79 125.52 35.61C134.4 46.4 139.79 60.21 139.94 75.23ZM118.44 28.31C118.27 28.56 109.24 42.3 85.32 51.26C74.49 31.35 62.58 15.53 61.63 14.28C66.44 13.12 71.42 12.49 76.57 12.49C92.62 12.49 107.26 18.47 118.44 28.31ZM61.38 14.33L61.38 14.34C61.38 14.34 61.29 14.36 61.19 14.37C61.19 14.37 61.32 14.36 61.38 14.33ZM49.53 18.55C50.35 19.68 62.09 35.58 73.05 55.07C42.62 63.16 16.21 62.84 14.53 62.81C18.65 43.19 31.85 26.91 49.53 18.55ZM13.18 75.87C13.18 75.19 13.21 74.54 13.22 73.87C14.35 73.89 45.68 74.6 78.3 64.84C80.12 68.4 81.87 72.01 83.45 75.62C82.61 75.84 81.79 76.11 80.94 76.37C46.74 87.41 29.4 118.2 29.4 118.2L29.42 118.23C19.33 106.99 13.18 92.16 13.18 75.87ZM76.57 139.27C61.23 139.27 47.15 133.8 36.19 124.74C37.01 125.42 37.61 125.85 37.61 125.85C37.61 125.85 49.76 99.35 87.35 86.24C87.5 86.19 87.63 86.14 87.76 86.12C96.69 109.29 100.37 128.7 101.3 134.25C93.71 137.47 85.35 139.27 76.57 139.27ZM111.98 128.44C111.34 124.62 107.95 106.02 99.65 83.17C120.11 79.91 137.83 85.52 139.15 85.94C136.33 103.61 126.23 118.85 111.98 128.44Z" />
		</g>
	</g>
</svg>