<svg version="1.2" baseProfile="tiny-ps" xmlns="http://www.w3.org/2000/svg" viewBox="0 0 148 120" width="148" height="120">
	<title>Footer</title>
	<style>
		tspan { white-space:pre }
		.shp0 { fill: #ffffff } 
	</style>
	<g id="Footer">
		<g id="Social Icons">
			<path id="Twitter" class="shp0" d="M147.38 14.29C141.95 16.69 136.11 18.33 129.96 19.06C136.22 15.31 141.04 9.37 143.3 2.26C137.44 5.75 130.94 8.28 124.04 9.65C118.51 3.74 110.61 0.05 101.88 0.05C85.12 0.05 71.54 13.64 71.54 30.4C71.54 32.78 71.82 35.09 72.33 37.32C47.1 36.06 24.75 23.98 9.78 5.6C7.17 10.08 5.67 15.31 5.67 20.87C5.67 31.39 11.03 40.67 19.17 46.13C14.2 45.97 9.51 44.6 5.42 42.32C5.42 42.45 5.42 42.59 5.42 42.72C5.42 57.41 15.88 69.68 29.77 72.47C27.21 73.16 24.54 73.52 21.76 73.52C19.81 73.52 17.92 73.34 16.07 72.98C19.91 85.05 31.12 93.81 44.4 94.06C34.01 102.2 20.94 107.05 6.72 107.05C4.26 107.05 1.85 106.91 -0.53 106.62C12.91 115.23 28.86 120.26 46 120.26C101.81 120.26 132.34 74.02 132.34 33.91C132.34 32.61 132.31 31.29 132.24 29.98C138.17 25.71 143.32 20.37 147.38 14.29Z" />
		</g>
	</g>
</svg>